<svg xmlns="http://www.w3.org/2000/svg" viewBox="0 0 128 48">
<g transform="translate(47.938,27.922)"><path d="M0.908 15.097 C0.724 15.084 0.564 15.07 0.428 15.057 L0 15.017 L0 13.643 C0.681 13.697 1.109 13.723 1.286 13.723 C1.967 13.723 2.474 13.457 2.807 12.925 C3.141 12.393 3.307 11.649 3.307 10.691 L3.307 0 L4.879 0 L4.879 10.307 C4.879 13.514 3.756 15.117 1.511 15.117 C1.293 15.117 1.092 15.111 0.908 15.097 Z" fill="rgb(35,31,32)" fill-rule="nonzero"></path></g>
<g transform="translate(56.094,23.484)"><path d="M0 0 L1.571 0 L1.571 14.51 L0 14.51 L0 0 Z" fill="rgb(35,31,32)" fill-rule="nonzero"></path></g>
<g transform="translate(60.328,24.328)"><path d="M0.908 18.693 C0.724 18.68 0.564 18.666 0.428 18.653 L0 18.613 L0 17.239 C0.681 17.292 1.109 17.319 1.286 17.319 C1.967 17.319 2.474 17.053 2.807 16.521 C3.141 15.989 3.307 15.245 3.307 14.287 L3.307 3.596 L4.879 3.596 L4.879 13.903 C4.879 17.11 3.756 18.713 1.511 18.713 C1.293 18.713 1.092 18.707 0.908 18.693 Z M3.286 0 L4.837 0 L4.837 1.697 L3.286 1.697 L3.286 0 Z" fill="rgb(35,31,32)" fill-rule="nonzero"></path></g>
<g transform="translate(80.125,39.625)"><path d="M0 0 L0 1.697 L1.551 1.697 L1.551 0 L0 0 Z" fill="rgb(35,31,32)" fill-rule="nonzero"></path></g>
<g transform="translate(68.484,23.484)"><path d="M13.207 4.406 L13.207 14.511 L0 14.511 L0 0 L1.572 0 L1.572 13.116 L11.635 13.116 L11.635 4.406 L13.207 4.406 Z" fill="rgb(35,31,32)" fill-rule="nonzero"></path></g>
<g transform="translate(111.359,39.625)"><path d="M2.552 0 L2.552 1.697 L4.103 1.697 L4.103 0 L2.552 0 Z M0 0 L0 1.697 L1.551 1.697 L1.551 0 L0 0 Z" fill="rgb(35,31,32)" fill-rule="nonzero"></path></g>
<g transform="translate(88.641,23.484)"><path d="M38.53 7.013 C37.978 6.191 37.111 5.78 35.927 5.78 L30.987 5.78 L31.762 4.284 C32.021 3.787 32.307 3.284 32.62 2.779 C32.932 2.274 33.402 1.557 34.028 0.627 L32.905 0 C32.403 0.607 31.902 1.257 31.406 1.95 C30.908 2.644 30.538 3.234 30.292 3.719 L29.232 5.78 L30.272 7.175 L35.805 7.175 C36.511 7.188 37.019 7.492 37.325 8.084 C37.631 8.677 37.784 9.378 37.784 10.186 L37.784 13.116 L25.577 13.116 L25.577 4.406 L24.006 4.406 L24.006 13.116 L8.247 13.116 L8.247 4.406 C7.743 4.312 7.107 4.224 6.338 4.144 C5.569 4.062 4.913 4.022 4.368 4.022 C3.225 4.022 2.333 4.228 1.694 4.639 C1.054 5.049 0.612 5.649 0.367 6.438 C0.123 7.225 0 8.246 0 9.499 C0 10.981 0.242 12.187 0.724 13.116 C1.208 14.046 2.191 14.511 3.675 14.511 L6.675 14.511 C6.675 15.535 6.586 16.309 6.41 16.835 C6.233 17.36 5.999 17.707 5.706 17.876 C5.413 18.044 5.029 18.128 4.552 18.128 C3.83 18.128 2.837 18.034 1.571 17.845 L1.571 19.22 C3.001 19.422 4.028 19.523 4.654 19.523 C5.838 19.523 6.705 19.112 7.257 18.29 C7.808 17.468 8.124 16.209 8.206 14.511 L39.356 14.511 L39.356 10.206 C39.356 8.899 39.081 7.835 38.53 7.013 Z M6.675 13.116 L4.267 13.116 C3.178 13.116 2.456 12.776 2.102 12.096 C1.748 11.416 1.571 10.536 1.571 9.458 C1.571 8.542 1.663 7.791 1.847 7.205 C2.031 6.619 2.355 6.174 2.817 5.871 C3.279 5.568 3.926 5.416 4.756 5.416 C5.3 5.416 5.941 5.464 6.675 5.558 L6.675 13.116 Z" fill="rgb(35,31,32)" fill-rule="nonzero"></path></g>
<g transform="translate(47.703,5.063)"><path d="M0 0 L5.899 0 C7.544 0 8.762 0.337 9.553 1.012 C10.344 1.687 10.74 2.737 10.74 4.165 C10.74 5.111 10.568 5.867 10.223 6.433 C9.877 7 9.353 7.452 8.648 7.794 C9.525 8.104 10.176 8.57 10.599 9.19 C11.021 9.81 11.233 10.648 11.233 11.703 C11.233 13.224 10.806 14.336 9.953 15.042 C9.099 15.747 7.849 16.101 6.205 16.101 L0 16.101 L0 0 Z M5.993 7.142 C6.98 7.142 7.708 6.906 8.178 6.433 C8.648 5.96 8.883 5.25 8.883 4.303 C8.883 3.357 8.64 2.648 8.155 2.221 C7.67 1.795 6.894 1.582 5.828 1.582 L1.809 1.582 L1.809 7.142 L5.993 7.142 Z M6.134 14.518 C7.2 14.518 8.01 14.293 8.566 13.843 C9.122 13.393 9.401 12.664 9.401 11.656 C9.401 10.571 9.095 9.807 8.484 9.364 C7.873 8.922 7.051 8.701 6.016 8.701 L1.809 8.701 L1.809 14.517 L6.133 14.517 L6.134 14.518 Z" fill="rgb(35,31,32)" fill-rule="nonzero"></path></g>
<g transform="translate(60.500,5.063)"><path d="M9.917 11.959 L2.961 11.959 L1.786 16.101 L0 16.101 L4.465 0 L8.413 0 L12.878 16.101 L11.092 16.101 L9.917 11.959 Z M3.359 10.353 L9.517 10.353 L7.049 1.536 L5.826 1.536 L3.359 10.353 L3.359 10.353 Z" fill="rgb(35,31,32)" fill-rule="nonzero"></path></g>
<g transform="translate(74.953,5.063)"><path d="M0 14.053 L8.484 2.094 L8.484 1.582 L0 1.582 L0 0 L10.576 0 L10.576 2.094 L2.068 14.053 L2.068 14.518 L10.576 14.518 L10.576 16.124 L0 16.124 L0 14.053 Z" fill="rgb(35,31,32)" fill-rule="nonzero"></path></g>
<g transform="translate(87.109,5.063)"><path d="M9.917 11.959 L2.961 11.959 L1.786 16.101 L0 16.101 L4.465 0 L8.413 0 L12.878 16.101 L11.092 16.101 L9.917 11.959 Z M3.36 10.353 L9.518 10.353 L7.05 1.536 L5.827 1.536 L3.359 10.353 L3.36 10.353 Z" fill="rgb(35,31,32)" fill-rule="nonzero"></path></g>
<g transform="translate(101.109,5.063)"><path d="M9.917 11.959 L2.961 11.959 L1.786 16.101 L0 16.101 L4.465 0 L8.413 0 L12.878 16.101 L11.092 16.101 L9.917 11.959 Z M3.36 10.353 L9.518 10.353 L7.05 1.536 L5.827 1.536 L3.359 10.353 L3.36 10.353 Z" fill="rgb(35,31,32)" fill-rule="nonzero"></path></g>
<g transform="translate(116.547,5.063)"><path d="M0 0 L6.016 0 C7.755 0 9.055 0.399 9.917 1.199 C10.779 1.998 11.21 3.226 11.21 4.887 C11.21 7.384 10.215 8.943 8.226 9.563 L11.351 16.101 L9.353 16.101 L6.415 9.936 L1.809 9.936 L1.809 16.101 L0 16.101 L0 0 Z M6.039 8.352 C8.248 8.352 9.352 7.221 9.352 4.955 C9.352 2.69 8.24 1.582 6.015 1.582 L1.808 1.582 L1.808 8.352 L6.038 8.352 L6.039 8.352 Z" fill="rgb(35,31,32)" fill-rule="nonzero"></path></g>
<g transform="translate(0.250,0.203)"><path d="M35.056 6.327 C31.374 2.109 26.452 0 20.288 0 C14.456 0 9.637 1.925 5.831 5.774 C1.944 9.666 0 14.784 0 21.132 C0 24.844 0.589 28.259 1.841 31.138 C2.089 31.096 2.376 30.955 2.623 30.955 L12.492 30.955 C10.632 28.469 8.997 25.195 8.997 21.132 C8.997 17.068 10 13.556 12.007 11.058 C14.013 8.56 16.711 7.311 20.104 7.311 C23.496 7.311 26.246 8.551 28.232 11.027 C30.217 13.505 31.211 16.853 31.211 21.07 C31.211 24.839 31.259 28.374 29.398 30.832 L38.624 31.033 C39.88 28.235 40.207 24.821 40.207 20.948 C40.207 15.174 38.491 10.301 35.058 6.327 L35.056 6.327 Z" fill="rgb(0,0,0)" fill-rule="nonzero"></path></g>
<g transform="translate(1.906,26.531)"><path d="M24.137 0.553 C24.604 0.898 25.011 1.287 25.421 1.697 C25.535 1.807 25.648 1.918 25.765 2.032 C26.186 2.445 26.602 2.863 27.016 3.284 C27.585 3.851 28.256 4.198 29.03 4.323 C29.118 4.324 29.207 4.325 29.296 4.327 C29.584 4.33 29.872 4.329 30.159 4.329 C30.359 4.33 30.559 4.332 30.761 4.334 C31.287 4.339 31.812 4.341 32.338 4.341 C32.874 4.342 33.412 4.347 33.949 4.351 C35.001 4.36 36.054 4.364 37.106 4.366 C36.509 5.878 35.534 7.215 34.46 8.432 C34.354 8.553 34.248 8.674 34.137 8.799 C34.039 8.906 33.941 9.013 33.84 9.123 C33.688 9.331 33.618 9.552 33.631 9.789 C33.837 10.424 34.265 10.776 34.746 11.229 C34.844 11.325 34.944 11.422 35.044 11.519 C35.358 11.824 35.674 12.127 35.991 12.429 C36.306 12.732 36.621 13.034 36.934 13.339 C37.129 13.527 37.325 13.716 37.522 13.902 C38.428 14.778 38.965 15.635 39.072 16.918 C39.025 18.347 38.429 19.518 37.387 20.486 C36.371 21.296 35.43 21.516 34.136 21.454 C32.344 21.253 31.128 19.687 29.943 18.474 C29.735 18.262 29.528 18.052 29.321 17.84 C28.999 17.513 28.677 17.183 28.358 16.852 C28.047 16.53 27.732 16.21 27.416 15.891 C27.322 15.791 27.227 15.691 27.13 15.588 C26.819 15.262 26.457 15.025 26.045 14.879 C25.839 14.897 25.589 14.951 25.295 15.043 C25.193 15.066 25.093 15.088 24.988 15.112 C24.906 15.136 24.823 15.16 24.739 15.185 C24.645 15.212 24.551 15.239 24.454 15.267 C24.359 15.295 24.262 15.323 24.163 15.352 C19.024 16.809 13.424 16.171 8.731 13.644 C8.11 13.295 7.517 12.91 6.934 12.5 C6.862 12.45 6.791 12.399 6.717 12.348 C3.955 10.377 1.248 7.554 0 4.364 C1.336 4.34 2.672 4.322 4.008 4.311 C4.629 4.306 5.249 4.299 5.87 4.287 C6.469 4.276 7.069 4.27 7.669 4.267 C7.897 4.265 8.125 4.261 8.352 4.256 C9.692 4.224 10.608 4.425 11.1 4.858 C11.254 5.03 11.406 5.205 11.556 5.381 C12.589 6.192 13.806 6.803 15.023 7.288 C15.146 7.338 15.269 7.387 15.394 7.438 C16.761 7.923 18.207 7.961 19.645 8.05 C19.577 7.969 19.509 7.89 19.438 7.808 C18.897 7.158 18.434 6.541 18.104 5.762 C18.058 5.666 18.013 5.57 17.966 5.473 C17.672 4.613 17.702 3.435 18.048 2.592 C18.634 1.507 19.541 0.635 20.704 0.193 C21.892 -0.154 23.05 -0.031 24.139 0.55 L24.137 0.553 Z" fill="rgb(0,0,0)" fill-rule="nonzero"></path></g>
<g transform="translate(25.797,0.656)"><path d="M0 0.001 C6.244 1.402 10.997 5.673 14.554 10.976 C14.721 11.223 14.892 11.466 15.065 11.708 C15.094 11.752 15.108 11.796 15.11 11.839 C15.234 14.967 7.29 13.781 7.042 12.642 C6.606 11.557 5.97 10.579 5.347 9.602 C4.872 8.857 4.451 8.085 4.036 7.303 C3.446 6.208 2.844 5.118 2.235 4.034 C2.157 3.897 2.08 3.76 2.001 3.618 C1.642 2.98 1.281 2.345 0.918 1.71 C0.855 1.601 0.793 1.492 0.728 1.379 C0.612 1.177 0.496 0.976 0.379 0.774 C0.001 0.114 0.001 0.306 0.001 0 L0 0.001 Z" fill="rgb(243,126,86)" fill-rule="nonzero"></path></g>
<g transform="translate(0.000,0.641)"><path d="M4.976 5.657 C4.814 5.831 4.65 6.006 4.485 6.177 C3.702 6.986 2.948 7.806 2.291 8.721 C2.114 8.971 1.933 9.214 1.742 9.454 C1.146 10.208 0.563 10.966 0.166 11.844 C-0.149 13.06 -0.012 14.298 0.544 15.418 C0.676 15.628 0.807 15.837 0.938 16.047 C0.946 16.067 3.521 16.369 6.026 16.658 C6.07 16.551 6.135 16.455 6.225 16.374 C6.281 16.325 6.337 16.274 6.39 16.22 C6.405 16.206 6.481 16.11 6.471 16.128 C6.566 15.992 6.647 15.85 6.759 15.724 C6.973 15.486 7.271 15.277 7.579 15.178 C7.628 15.162 7.677 15.151 7.726 15.143 C7.808 14.831 7.892 14.52 7.936 14.203 C7.954 14.08 7.974 13.904 7.994 13.754 C8.013 13.617 8.03 13.481 8.051 13.344 C8.057 13.303 8.062 13.274 8.064 13.26 C8.101 12.941 8.135 12.62 8.293 12.336 C8.294 12.284 8.302 12.234 8.312 12.184 C8.311 12.163 8.31 12.143 8.31 12.122 C8.31 11.926 8.378 11.742 8.491 11.593 C8.547 11.495 8.62 11.408 8.706 11.337 C8.715 11.276 8.729 11.227 8.752 11.193 C8.873 11.015 8.987 10.832 9.098 10.646 C9.234 10.411 9.371 10.176 9.51 9.943 C9.664 9.68 9.819 9.419 9.974 9.157 C10.057 9.015 10.138 8.878 10.219 8.741 C10.465 8.323 10.712 7.904 10.957 7.486 C11.629 6.343 12.297 5.196 12.989 4.064 C13.404 3.386 13.808 2.704 14.2 2.012 C14.259 1.907 14.317 1.806 14.374 1.703 C14.689 1.146 14.998 0.602 15.218 0 C11.764 0 7.235 3.307 4.977 5.656 L4.976 5.657 Z" fill="rgb(244,126,85)" fill-rule="nonzero"></path></g>
<g transform="translate(16.328,0.000)"><path d="M2.917 0 C3.046 0 3.174 0.001 3.307 0.002 C3.446 0.002 3.584 0.002 3.727 0.003 C3.874 0.004 4.021 0.005 4.17 0.006 C4.319 0.006 4.467 0.007 4.615 0.008 C4.979 0.01 5.342 0.011 5.706 0.013 C6.06 0.74 6.216 1.435 6.351 2.228 C6.374 2.356 6.396 2.484 6.42 2.617 C6.468 2.89 6.516 3.165 6.564 3.44 C6.688 4.158 6.817 4.876 6.946 5.594 C6.971 5.737 6.997 5.88 7.023 6.028 C7.285 7.487 7.576 8.939 7.877 10.39 C7.894 10.475 7.912 10.56 7.93 10.648 C7.976 10.872 8.024 11.096 8.07 11.321 C8.38 12.928 8.593 14.779 7.707 16.238 C7.035 17.169 6.182 17.799 5.062 18.099 C3.846 18.218 2.727 18.227 1.717 17.462 C0.74 16.623 0.111 15.582 0.003 14.294 C0 14.112 -0.001 13.93 0 13.748 C0 13.649 0 13.549 0.001 13.447 C0.026 12.261 0.258 11.123 0.495 9.965 C0.541 9.729 0.587 9.494 0.634 9.257 C0.706 8.889 0.778 8.522 0.851 8.154 C1.029 7.258 1.196 6.361 1.357 5.462 C1.38 5.335 1.403 5.208 1.427 5.077 C1.516 4.583 1.605 4.088 1.693 3.594 C2.116 1.217 2.524 0.019 2.917 0 Z" fill="rgb(243,128,87)" fill-rule="nonzero"></path></g>
<g transform="translate(24.344,12.484)"><path d="M8.361 0 C8.471 2.104 8.135 3.593 7.354 4.465 C6.473 5.316 5.527 5.629 4.309 5.667 C3.154 5.632 2.222 5.346 1.363 4.566 C1.034 4.187 0.797 3.761 0.561 3.32 C0.453 3.118 0.266 2.987 0 2.929 C0.019 2.824 0.04 2.721 0.06 2.614 C0.137 2.108 0.173 1.608 0.201 1.098 C0.207 1.004 0.212 0.91 0.218 0.814 C0.231 0.585 0.244 0.356 0.257 0.126 C1.295 0.11 2.332 0.093 3.37 0.077 C3.852 0.069 4.333 0.061 4.816 0.054 C5.28 0.046 5.745 0.038 6.209 0.032 C6.387 0.029 6.564 0.026 6.742 0.023 C6.99 0.019 7.238 0.015 7.486 0.011 C7.627 0.009 7.77 0.007 7.914 0.005 C8.126 0.002 8.275 0 8.361 0 Z" fill="rgb(225,225,223)" fill-rule="nonzero"></path></g>
<g transform="translate(32.594,12.469)"><path d="M0.544 0.013 C1.481 0.011 2.418 0.009 3.355 0.008 C3.836 0.008 4.318 0.006 4.801 0.005 C5.265 0.004 5.73 0.003 6.194 0.002 C6.372 0.002 6.549 0.002 6.727 0.001 C6.974 0.001 7.223 0 7.471 0 C7.612 0 7.753 0 7.899 0 C8.111 0.01 8.26 0.058 8.346 0.143 C8.468 1.652 8.351 2.873 7.48 4.167 C7.126 4.538 6.741 4.739 6.28 4.951 C6.2 4.989 6.12 5.028 6.036 5.067 C5.035 5.543 4.073 5.669 2.991 5.349 C1.72 4.865 0.852 4.098 0.29 2.872 C0.055 2.227 0.041 1.587 0.024 0.908 C0.019 0.785 0.016 0.662 0.011 0.535 C-0.013 0.361 -0.007 0.091 0.135 0.046 C0.287 -0.003 0.437 0.027 0.543 0.015 L0.544 0.013 Z" fill="rgb(211,102,76)" fill-rule="nonzero"></path></g>
<g transform="translate(8.203,12.484)"><path d="M0.054 0.001 C2.728 0.043 5.402 0.085 8.157 0.128 C8.258 1.917 8.044 3.191 7.514 3.949 C7.462 4.029 7.41 4.108 7.356 4.19 C6.834 4.892 4.878 5.633 4.546 5.629 C4.426 5.629 4.306 5.628 4.183 5.627 C4.059 5.625 3.936 5.623 3.809 5.62 C3.683 5.619 3.557 5.618 3.427 5.616 C3.117 5.613 2.498 5.435 2.498 5.349 C2.405 5.317 2.311 5.287 2.213 5.254 C1.228 4.814 0.585 3.891 0.182 2.929 C-0.13 2.002 0.054 0.977 0.054 0 L0.054 0.001 Z" fill="rgb(225,225,223)" fill-rule="nonzero"></path></g>
<g transform="translate(16.453,12.609)"><path d="M0.046 0.011 C0.872 0.008 1.698 0.005 2.524 0.004 C2.804 0.004 3.083 0.002 3.364 0.001 C4.923 -0.004 6.469 0.001 8.022 0.138 C8.089 1.948 7.918 3.137 7.508 3.705 C7.444 3.794 7.38 3.884 7.313 3.976 C6.71 4.73 5.908 5.315 4.934 5.487 C3.712 5.581 2.607 5.625 1.589 4.851 C0.802 4.149 0.138 3.296 0.004 2.226 C-0.004 1.887 0.001 1.552 0.014 1.213 C0.016 1.098 0.019 0.981 0.021 0.861 C0.027 0.578 0.035 0.295 0.046 0.012 L0.046 0.011 Z" fill="rgb(212,103,76)" fill-rule="nonzero"></path></g>
<g transform="translate(0.016,12.563)"><path d="M0.248 0.002 C2.807 -0.01 5.449 0.033 8.007 0.133 C8.131 0.138 8.231 0.237 8.237 0.359 C8.349 2.504 8.272 2.549 7.696 3.592 C7.689 3.605 7.681 3.616 7.673 3.628 C7.406 3.961 7.141 4.259 6.812 4.535 L6.523 4.799 C6.514 4.806 6.504 4.814 6.495 4.821 C5.427 5.551 4.294 5.556 3.041 5.444 L2.999 5.436 C2.537 5.317 2.131 5.153 1.713 4.924 L1.399 4.77 C1.387 4.764 1.375 4.757 1.365 4.749 C0.972 4.469 0.805 4.18 0.569 3.759 C0.491 3.623 0.414 3.487 0.334 3.346 C0.084 2.868 -0.003 2.521 0 1.99 C0 1.874 0 1.759 0.001 1.639 C0.002 1.519 0.003 1.399 0.004 1.274 C0.004 1.153 0.005 1.031 0.006 0.906 C0.007 0.684 0.009 0.462 0.011 0.24 C0.012 0.109 0.118 0.004 0.25 0.003 L0.248 0.002 Z" fill="rgb(212,103,77)" fill-rule="nonzero"></path></g>
<g transform="translate(8.266,0.047)"><path d="M0 12.434 L6.946 0.59 L10.642 0 L10.359 0.476 L8.104 12.561 L0 12.434 Z" fill="rgb(255,255,255)" fill-rule="nonzero"></path></g>
<g transform="translate(22.031,0.000)"><path d="M2.596 12.596 L0.338 0.857 L0 0 L3.731 0.637 L10.548 12.481 L2.596 12.596 Z" fill="rgb(255,255,255)" fill-rule="nonzero"></path></g>
</svg>
